# xmcd
#
# Track frame offsets:
#	150
#	10965
#	22065
#	34440
#	45840
#	69015
#	79890
#	92485
#	105242
#	116862
#	127967
#	140562
#	149642
#	175570
#	187195
#
# Disc length: 2631
#
# Revision: 3
# Processed by: cddbd v1.5.1PL0 Copyright (c) Steve Scherf et al.
# Submitted via: audiograbber 1.80
# Normalized: r1:DSETVAR1,TDELIM( - ),TSWAP
#
DISCID=c80a450f
DTITLE=Various Artist - Classic Rhythm and Blues, 1950 - 1954, CD-2
DYEAR=1900
DGENRE=
TTITLE0=Chuck Berry - Maybellene
TTITLE1=Fats Domino - Ain't That A Shame
TTITLE2=Little Willie John - Fever
TTITLE3=Johnny Ace - Pledging My Love
TTITLE4=Ray Charles - What'd I Say (Parts 1 and 2)
TTITLE5=Thurston Harris - Little Bitty Pretty One
TTITLE6=Ivory Joe Hunter - Since I Met You Baby
TTITLE7=The Silhouettes - Get A Job
TTITLE8=Clyde McPhatter - A Lover's Question
TTITLE9=Little Richard - Tutti Fruitti
TTITLE10=James Brown and The Famous Flames - Please, Please, Please
TTITLE11=Fats Domino - I'm In Love Again
TTITLE12=Bill Doggett - Honky Tonk (Parts 1 and 2)
TTITLE13=Chuck Willis - C. C. Rider
TTITLE14=Fats Domino - Blue Monday
EXTD=
EXTT0=
EXTT1=
EXTT2=
EXTT3=
EXTT4=
EXTT5=
EXTT6=
EXTT7=
EXTT8=
EXTT9=
EXTT10=
EXTT11=
EXTT12=
EXTT13=
EXTT14=
PLAYORDER=
